<mxfile host="app.diagrams.net" modified="2021-06-12T06:05:19.589Z" agent="5.0 (Windows NT 10.0; Win64; x64) AppleWebKit/537.36 (KHTML, like Gecko) Chrome/91.0.4472.77 Safari/537.36 Edg/91.0.864.41" etag="MHYPS5R_p7ahReWXsYe2" version="14.7.7" type="github">
  <diagram id="ayI-DmzHFY0X1hA3erkS" name="Page-1">
    <mxGraphModel dx="866" dy="522" grid="1" gridSize="10" guides="1" tooltips="1" connect="1" arrows="1" fold="1" page="1" pageScale="1" pageWidth="1000" pageHeight="2200" math="0" shadow="0">
      <root>
        <mxCell id="0" />
        <mxCell id="1" parent="0" />
        <mxCell id="M1myHu0ja1iW1hB-PIuA-4" value="" style="shape=actor;whiteSpace=wrap;html=1;" parent="1" vertex="1">
          <mxGeometry x="130" y="160" width="60" height="100" as="geometry" />
        </mxCell>
        <mxCell id="M1myHu0ja1iW1hB-PIuA-5" value="User" style="text;html=1;strokeColor=none;fillColor=none;align=center;verticalAlign=middle;whiteSpace=wrap;rounded=0;" parent="1" vertex="1">
          <mxGeometry x="140" y="270" width="40" height="20" as="geometry" />
        </mxCell>
        <mxCell id="M1myHu0ja1iW1hB-PIuA-7" value="" style="endArrow=classic;html=1;" parent="1" source="M1myHu0ja1iW1hB-PIuA-4" edge="1">
          <mxGeometry width="50" height="50" relative="1" as="geometry">
            <mxPoint x="190" y="220" as="sourcePoint" />
            <mxPoint x="400" y="80" as="targetPoint" />
          </mxGeometry>
        </mxCell>
        <mxCell id="M1myHu0ja1iW1hB-PIuA-8" value="&lt;span style=&quot;font-size: 14px&quot;&gt;Management income &amp;amp; spending&lt;/span&gt;" style="ellipse;whiteSpace=wrap;html=1;" parent="1" vertex="1">
          <mxGeometry x="400" y="50" width="140" height="70" as="geometry" />
        </mxCell>
        <mxCell id="M1myHu0ja1iW1hB-PIuA-14" value="" style="endArrow=classic;html=1;entryX=0;entryY=0.5;entryDx=0;entryDy=0;" parent="1" edge="1" target="M1myHu0ja1iW1hB-PIuA-18">
          <mxGeometry width="50" height="50" relative="1" as="geometry">
            <mxPoint x="200" y="210" as="sourcePoint" />
            <mxPoint x="400" y="160" as="targetPoint" />
          </mxGeometry>
        </mxCell>
        <mxCell id="M1myHu0ja1iW1hB-PIuA-18" value="&lt;font style=&quot;font-size: 14px&quot;&gt;View spending information&lt;/font&gt;" style="ellipse;whiteSpace=wrap;html=1;" parent="1" vertex="1">
          <mxGeometry x="400" y="130" width="140" height="60" as="geometry" />
        </mxCell>
        <mxCell id="M1myHu0ja1iW1hB-PIuA-22" value="" style="endArrow=classic;html=1;entryX=0;entryY=0.5;entryDx=0;entryDy=0;" parent="1" edge="1" target="M1myHu0ja1iW1hB-PIuA-25">
          <mxGeometry width="50" height="50" relative="1" as="geometry">
            <mxPoint x="200" y="230" as="sourcePoint" />
            <mxPoint x="400" y="230" as="targetPoint" />
          </mxGeometry>
        </mxCell>
        <mxCell id="M1myHu0ja1iW1hB-PIuA-25" value="&lt;font style=&quot;font-size: 14px&quot;&gt;Exports&lt;/font&gt;" style="ellipse;whiteSpace=wrap;html=1;" parent="1" vertex="1">
          <mxGeometry x="400" y="210" width="140" height="60" as="geometry" />
        </mxCell>
        <mxCell id="M1myHu0ja1iW1hB-PIuA-26" value="" style="endArrow=classic;html=1;entryX=0;entryY=0.5;entryDx=0;entryDy=0;" parent="1" target="M1myHu0ja1iW1hB-PIuA-28" edge="1">
          <mxGeometry width="50" height="50" relative="1" as="geometry">
            <mxPoint x="200" y="250" as="sourcePoint" />
            <mxPoint x="400" y="290" as="targetPoint" />
          </mxGeometry>
        </mxCell>
        <mxCell id="M1myHu0ja1iW1hB-PIuA-28" value="&lt;font style=&quot;font-size: 14px&quot;&gt;Spending limit alarm&lt;/font&gt;" style="ellipse;whiteSpace=wrap;html=1;" parent="1" vertex="1">
          <mxGeometry x="400" y="300" width="140" height="60" as="geometry" />
        </mxCell>
        <mxCell id="M1myHu0ja1iW1hB-PIuA-29" value="&lt;font style=&quot;font-size: 14px&quot;&gt;Biểu đồ use case tổng quan&lt;/font&gt;" style="text;html=1;strokeColor=none;fillColor=none;align=center;verticalAlign=middle;whiteSpace=wrap;rounded=0;" parent="1" vertex="1">
          <mxGeometry x="40" y="20" width="260" height="20" as="geometry" />
        </mxCell>
        <mxCell id="M1myHu0ja1iW1hB-PIuA-30" value="&lt;span style=&quot;font-size: 14px&quot;&gt;Management income &amp;amp; spending&lt;/span&gt;" style="ellipse;whiteSpace=wrap;html=1;" parent="1" vertex="1">
          <mxGeometry x="90" y="570" width="130" height="80" as="geometry" />
        </mxCell>
        <mxCell id="M1myHu0ja1iW1hB-PIuA-31" value="&lt;span style=&quot;font-size: 14px&quot;&gt;Use case: Management income &amp;amp; spending&lt;/span&gt;" style="text;html=1;strokeColor=none;fillColor=none;align=center;verticalAlign=middle;whiteSpace=wrap;rounded=0;" parent="1" vertex="1">
          <mxGeometry x="70" y="450" width="280" height="20" as="geometry" />
        </mxCell>
        <mxCell id="M1myHu0ja1iW1hB-PIuA-32" value="" style="endArrow=classic;html=1;exitX=1;exitY=0;exitDx=0;exitDy=0;" parent="1" source="M1myHu0ja1iW1hB-PIuA-30" edge="1">
          <mxGeometry width="50" height="50" relative="1" as="geometry">
            <mxPoint x="400" y="570" as="sourcePoint" />
            <mxPoint x="400" y="520" as="targetPoint" />
          </mxGeometry>
        </mxCell>
        <mxCell id="M1myHu0ja1iW1hB-PIuA-33" value="&lt;font style=&quot;font-size: 14px&quot;&gt;Add income&lt;/font&gt;" style="ellipse;whiteSpace=wrap;html=1;" parent="1" vertex="1">
          <mxGeometry x="400" y="490" width="120" height="60" as="geometry" />
        </mxCell>
        <mxCell id="M1myHu0ja1iW1hB-PIuA-34" value="&lt;font style=&quot;font-size: 14px&quot;&gt;Add spending&lt;/font&gt;" style="ellipse;whiteSpace=wrap;html=1;" parent="1" vertex="1">
          <mxGeometry x="400" y="570" width="120" height="60" as="geometry" />
        </mxCell>
        <mxCell id="M1myHu0ja1iW1hB-PIuA-35" value="" style="endArrow=classic;html=1;entryX=0;entryY=0.5;entryDx=0;entryDy=0;exitX=1.008;exitY=0.425;exitDx=0;exitDy=0;exitPerimeter=0;" parent="1" source="M1myHu0ja1iW1hB-PIuA-30" target="M1myHu0ja1iW1hB-PIuA-34" edge="1">
          <mxGeometry width="50" height="50" relative="1" as="geometry">
            <mxPoint x="220" y="610" as="sourcePoint" />
            <mxPoint x="450" y="520" as="targetPoint" />
          </mxGeometry>
        </mxCell>
        <mxCell id="M1myHu0ja1iW1hB-PIuA-36" value="" style="endArrow=classic;html=1;entryX=0;entryY=0.5;entryDx=0;entryDy=0;exitX=0.95;exitY=0.3;exitDx=0;exitDy=0;exitPerimeter=0;" parent="1" source="M1myHu0ja1iW1hB-PIuA-34" target="M1myHu0ja1iW1hB-PIuA-37" edge="1">
          <mxGeometry width="50" height="50" relative="1" as="geometry">
            <mxPoint x="510" y="590" as="sourcePoint" />
            <mxPoint x="640" y="540" as="targetPoint" />
          </mxGeometry>
        </mxCell>
        <mxCell id="M1myHu0ja1iW1hB-PIuA-37" value="&lt;font style=&quot;font-size: 14px&quot;&gt;money spent&lt;/font&gt;" style="ellipse;whiteSpace=wrap;html=1;" parent="1" vertex="1">
          <mxGeometry x="630" y="480" width="110" height="60" as="geometry" />
        </mxCell>
        <mxCell id="M1myHu0ja1iW1hB-PIuA-38" value="&lt;font style=&quot;font-size: 14px&quot;&gt;payment date&lt;/font&gt;" style="ellipse;whiteSpace=wrap;html=1;" parent="1" vertex="1">
          <mxGeometry x="630" y="550" width="110" height="60" as="geometry" />
        </mxCell>
        <mxCell id="M1myHu0ja1iW1hB-PIuA-39" value="" style="endArrow=classic;html=1;entryX=0;entryY=0.5;entryDx=0;entryDy=0;exitX=1;exitY=0.5;exitDx=0;exitDy=0;" parent="1" source="M1myHu0ja1iW1hB-PIuA-34" target="M1myHu0ja1iW1hB-PIuA-38" edge="1">
          <mxGeometry width="50" height="50" relative="1" as="geometry">
            <mxPoint x="400" y="680" as="sourcePoint" />
            <mxPoint x="450" y="630" as="targetPoint" />
          </mxGeometry>
        </mxCell>
        <mxCell id="M1myHu0ja1iW1hB-PIuA-41" value="&lt;font style=&quot;font-size: 14px&quot;&gt;spending details&lt;/font&gt;" style="ellipse;whiteSpace=wrap;html=1;" parent="1" vertex="1">
          <mxGeometry x="630" y="620" width="110" height="60" as="geometry" />
        </mxCell>
        <mxCell id="M1myHu0ja1iW1hB-PIuA-42" value="" style="endArrow=classic;html=1;entryX=0;entryY=0.5;entryDx=0;entryDy=0;exitX=0.983;exitY=0.633;exitDx=0;exitDy=0;exitPerimeter=0;" parent="1" source="M1myHu0ja1iW1hB-PIuA-34" target="M1myHu0ja1iW1hB-PIuA-41" edge="1">
          <mxGeometry width="50" height="50" relative="1" as="geometry">
            <mxPoint x="520" y="610" as="sourcePoint" />
            <mxPoint x="450" y="630" as="targetPoint" />
          </mxGeometry>
        </mxCell>
        <mxCell id="M1myHu0ja1iW1hB-PIuA-43" value="&lt;font style=&quot;font-size: 14px&quot;&gt;Update spending&lt;/font&gt;" style="ellipse;whiteSpace=wrap;html=1;" parent="1" vertex="1">
          <mxGeometry x="400" y="650" width="120" height="60" as="geometry" />
        </mxCell>
        <mxCell id="M1myHu0ja1iW1hB-PIuA-44" value="" style="endArrow=classic;html=1;entryX=0;entryY=0.5;entryDx=0;entryDy=0;exitX=0.95;exitY=0.725;exitDx=0;exitDy=0;exitPerimeter=0;" parent="1" source="M1myHu0ja1iW1hB-PIuA-30" target="M1myHu0ja1iW1hB-PIuA-43" edge="1">
          <mxGeometry width="50" height="50" relative="1" as="geometry">
            <mxPoint x="220" y="627" as="sourcePoint" />
            <mxPoint x="450" y="630" as="targetPoint" />
          </mxGeometry>
        </mxCell>
        <mxCell id="M1myHu0ja1iW1hB-PIuA-45" value="&lt;font style=&quot;font-size: 14px&quot;&gt;Delete spending&lt;/font&gt;" style="ellipse;whiteSpace=wrap;html=1;" parent="1" vertex="1">
          <mxGeometry x="400" y="730" width="120" height="60" as="geometry" />
        </mxCell>
        <mxCell id="M1myHu0ja1iW1hB-PIuA-46" value="" style="endArrow=classic;html=1;exitX=1;exitY=1;exitDx=0;exitDy=0;entryX=0;entryY=0.5;entryDx=0;entryDy=0;" parent="1" source="M1myHu0ja1iW1hB-PIuA-30" target="M1myHu0ja1iW1hB-PIuA-45" edge="1">
          <mxGeometry width="50" height="50" relative="1" as="geometry">
            <mxPoint x="360" y="690" as="sourcePoint" />
            <mxPoint x="450" y="630" as="targetPoint" />
          </mxGeometry>
        </mxCell>
        <mxCell id="M1myHu0ja1iW1hB-PIuA-51" value="&lt;font style=&quot;font-size: 14px&quot;&gt;Use case kiểm tra chi tiêu&lt;/font&gt;" style="text;html=1;strokeColor=none;fillColor=none;align=center;verticalAlign=middle;whiteSpace=wrap;rounded=0;" parent="1" vertex="1">
          <mxGeometry x="80" y="820" width="170" height="20" as="geometry" />
        </mxCell>
        <mxCell id="M1myHu0ja1iW1hB-PIuA-52" value="&lt;span style=&quot;font-size: 14px&quot;&gt;View spending information&lt;/span&gt;" style="ellipse;whiteSpace=wrap;html=1;" parent="1" vertex="1">
          <mxGeometry x="100" y="920" width="120" height="80" as="geometry" />
        </mxCell>
        <mxCell id="M1myHu0ja1iW1hB-PIuA-53" value="" style="endArrow=classic;html=1;exitX=1;exitY=0.5;exitDx=0;exitDy=0;entryX=0;entryY=0.5;entryDx=0;entryDy=0;" parent="1" source="M1myHu0ja1iW1hB-PIuA-52" target="M1myHu0ja1iW1hB-PIuA-55" edge="1">
          <mxGeometry width="50" height="50" relative="1" as="geometry">
            <mxPoint x="400" y="850" as="sourcePoint" />
            <mxPoint x="360" y="930" as="targetPoint" />
          </mxGeometry>
        </mxCell>
        <mxCell id="M1myHu0ja1iW1hB-PIuA-55" value="&lt;font style=&quot;font-size: 14px&quot;&gt;Filter&lt;/font&gt;" style="ellipse;whiteSpace=wrap;html=1;" parent="1" vertex="1">
          <mxGeometry x="370" y="930" width="120" height="60" as="geometry" />
        </mxCell>
        <mxCell id="M1myHu0ja1iW1hB-PIuA-58" value="Follow date" style="ellipse;whiteSpace=wrap;html=1;" parent="1" vertex="1">
          <mxGeometry x="630" y="880" width="110" height="60" as="geometry" />
        </mxCell>
        <mxCell id="M1myHu0ja1iW1hB-PIuA-59" value="" style="endArrow=classic;html=1;exitX=0.933;exitY=0.217;exitDx=0;exitDy=0;exitPerimeter=0;entryX=0;entryY=0.5;entryDx=0;entryDy=0;" parent="1" source="M1myHu0ja1iW1hB-PIuA-55" target="M1myHu0ja1iW1hB-PIuA-58" edge="1">
          <mxGeometry width="50" height="50" relative="1" as="geometry">
            <mxPoint x="400" y="780" as="sourcePoint" />
            <mxPoint x="450" y="730" as="targetPoint" />
          </mxGeometry>
        </mxCell>
        <mxCell id="M1myHu0ja1iW1hB-PIuA-64" value="&lt;font style=&quot;font-size: 14px&quot;&gt;Use case thống kê chi tiêu&lt;/font&gt;" style="text;html=1;strokeColor=none;fillColor=none;align=center;verticalAlign=middle;whiteSpace=wrap;rounded=0;" parent="1" vertex="1">
          <mxGeometry x="80" y="1100" width="170" height="20" as="geometry" />
        </mxCell>
        <mxCell id="M1myHu0ja1iW1hB-PIuA-65" value="&lt;span style=&quot;font-size: 14px&quot;&gt;Exports&lt;/span&gt;" style="ellipse;whiteSpace=wrap;html=1;" parent="1" vertex="1">
          <mxGeometry x="100" y="1210" width="120" height="70" as="geometry" />
        </mxCell>
        <mxCell id="M1myHu0ja1iW1hB-PIuA-66" value="" style="endArrow=classic;html=1;exitX=1;exitY=0.5;exitDx=0;exitDy=0;" parent="1" source="M1myHu0ja1iW1hB-PIuA-65" edge="1">
          <mxGeometry width="50" height="50" relative="1" as="geometry">
            <mxPoint x="400" y="1210" as="sourcePoint" />
            <mxPoint x="400" y="1190" as="targetPoint" />
          </mxGeometry>
        </mxCell>
        <mxCell id="M1myHu0ja1iW1hB-PIuA-67" value="&lt;font style=&quot;font-size: 14px&quot;&gt;Chart&lt;/font&gt;" style="ellipse;whiteSpace=wrap;html=1;" parent="1" vertex="1">
          <mxGeometry x="400" y="1160" width="120" height="60" as="geometry" />
        </mxCell>
        <mxCell id="M1myHu0ja1iW1hB-PIuA-68" value="&lt;font style=&quot;font-size: 14px&quot;&gt;Statistics&lt;/font&gt;" style="ellipse;whiteSpace=wrap;html=1;" parent="1" vertex="1">
          <mxGeometry x="400" y="1260" width="120" height="60" as="geometry" />
        </mxCell>
        <mxCell id="M1myHu0ja1iW1hB-PIuA-71" value="" style="endArrow=classic;html=1;exitX=1;exitY=0.5;exitDx=0;exitDy=0;entryX=0;entryY=0.5;entryDx=0;entryDy=0;" parent="1" source="M1myHu0ja1iW1hB-PIuA-65" target="M1myHu0ja1iW1hB-PIuA-68" edge="1">
          <mxGeometry width="50" height="50" relative="1" as="geometry">
            <mxPoint x="230" y="1260" as="sourcePoint" />
            <mxPoint x="410" y="1200" as="targetPoint" />
          </mxGeometry>
        </mxCell>
        <mxCell id="M1myHu0ja1iW1hB-PIuA-72" value="&lt;font style=&quot;font-size: 14px&quot;&gt;Use case Cảnh báo giới hạn chi tiêu&lt;/font&gt;" style="text;html=1;strokeColor=none;fillColor=none;align=center;verticalAlign=middle;whiteSpace=wrap;rounded=0;" parent="1" vertex="1">
          <mxGeometry x="75" y="1380" width="235" height="20" as="geometry" />
        </mxCell>
        <mxCell id="M1myHu0ja1iW1hB-PIuA-73" value="&lt;font style=&quot;font-size: 14px&quot;&gt;Spending limit alarm&lt;/font&gt;" style="ellipse;whiteSpace=wrap;html=1;" parent="1" vertex="1">
          <mxGeometry x="105" y="1490" width="120" height="80" as="geometry" />
        </mxCell>
        <mxCell id="M1myHu0ja1iW1hB-PIuA-74" value="" style="endArrow=classic;html=1;exitX=0.942;exitY=0.25;exitDx=0;exitDy=0;exitPerimeter=0;entryX=0;entryY=0.5;entryDx=0;entryDy=0;" parent="1" source="M1myHu0ja1iW1hB-PIuA-73" target="M1myHu0ja1iW1hB-PIuA-75" edge="1">
          <mxGeometry width="50" height="50" relative="1" as="geometry">
            <mxPoint x="400" y="1600" as="sourcePoint" />
            <mxPoint x="450" y="1550" as="targetPoint" />
          </mxGeometry>
        </mxCell>
        <mxCell id="M1myHu0ja1iW1hB-PIuA-75" value="&lt;font style=&quot;font-size: 14px&quot;&gt;Add spending limit&lt;/font&gt;" style="ellipse;whiteSpace=wrap;html=1;" parent="1" vertex="1">
          <mxGeometry x="395" y="1430" width="120" height="60" as="geometry" />
        </mxCell>
        <mxCell id="M1myHu0ja1iW1hB-PIuA-76" value="&lt;font style=&quot;font-size: 14px&quot;&gt;Delete spending limit&lt;/font&gt;" style="ellipse;whiteSpace=wrap;html=1;" parent="1" vertex="1">
          <mxGeometry x="395" y="1560" width="120" height="60" as="geometry" />
        </mxCell>
        <mxCell id="M1myHu0ja1iW1hB-PIuA-78" value="" style="endArrow=classic;html=1;exitX=1;exitY=0.5;exitDx=0;exitDy=0;entryX=0;entryY=0.5;entryDx=0;entryDy=0;" parent="1" source="M1myHu0ja1iW1hB-PIuA-73" target="M1myHu0ja1iW1hB-PIuA-76" edge="1">
          <mxGeometry width="50" height="50" relative="1" as="geometry">
            <mxPoint x="400" y="1470" as="sourcePoint" />
            <mxPoint x="450" y="1420" as="targetPoint" />
          </mxGeometry>
        </mxCell>
        <mxCell id="B7CRF_sADdfQLLlbNlFs-1" value="Follow money" style="ellipse;whiteSpace=wrap;html=1;" vertex="1" parent="1">
          <mxGeometry x="630" y="960" width="110" height="60" as="geometry" />
        </mxCell>
        <mxCell id="B7CRF_sADdfQLLlbNlFs-2" value="" style="endArrow=classic;html=1;entryX=0;entryY=0.5;entryDx=0;entryDy=0;exitX=0.942;exitY=0.733;exitDx=0;exitDy=0;exitPerimeter=0;" edge="1" parent="1" target="B7CRF_sADdfQLLlbNlFs-1" source="M1myHu0ja1iW1hB-PIuA-55">
          <mxGeometry width="50" height="50" relative="1" as="geometry">
            <mxPoint x="487" y="976" as="sourcePoint" />
            <mxPoint x="450" y="1020" as="targetPoint" />
          </mxGeometry>
        </mxCell>
      </root>
    </mxGraphModel>
  </diagram>
</mxfile>
